PathFileType	4	(X/Y/Z)	/Users/niels/Desktop/University/Third Semester/Perception and Action/Exam/Gymnastics Motion Tracking/Code for Gym Tracking/Analyzed Data/Webcam_Backflip/id2_2_trajectory_Sports2D/id2_2_trajectory_Sports2D_px_person00.trc
DataRate	CameraRate	NumFrames	NumMarkers	Units	OrigDataRate	OrigDataStartFrame	OrigNumFrames
29.928400954653938	29.928400954653938	7	22	m	29.928400954653938	104	419
Frame#	Time	Hip			RHip			RKnee			RAnkle			RBigToe			RSmallToe			RHeel			LHip			LKnee			LAnkle			LBigToe			LSmallToe			LHeel			Neck			Head			Nose			RShoulder			RElbow			RWrist			LShoulder			LElbow			LWrist		
		X1	Y1	Z1	X2	Y2	Z2	X3	Y3	Z3	X4	Y4	Z4	X5	Y5	Z5	X6	Y6	Z6	X7	Y7	Z7	X8	Y8	Z8	X9	Y9	Z9	X10	Y10	Z10	X11	Y11	Z11	X12	Y12	Z12	X13	Y13	Z13	X14	Y14	Z14	X15	Y15	Z15	X16	Y16	Z16	X17	Y17	Z17	X18	Y18	Z18	X19	Y19	Z19	X20	Y20	Z20	X21	Y21	Z21	X22	Y22	Z22
104	3.4749601275917064	0.8647756403977284	-0.479117554890636	0.0	0.8551923266395379	-0.4735364997570601	0.0	0.8479771113432097	-0.7179812810406235	0.0	0.8072517434441224	-0.9436122886747412	0.0	0.898833559442768	-0.9789279555307892	0.0	0.8749281075348277	-0.9890058883697942	0.0	0.7829339297173558	-0.9753447684771458	0.0	0.8946208912075584	-0.4772552357894247	0.0	0.9280047425321601	-0.7112240193049009	0.0	0.8304668605804327	-0.909907839703404	0.0	0.916889472073788	-0.961061445075521	0.0	0.9064814457616219	-0.9492889081490767	0.0	0.7975695346143922	-0.9341244700905151	0.0	0.9445749755751655	-0.1673760401642456	0.0	0.9801376366891172	-0.0268640321132048	0.0	0.9937879659504794	-0.11099767468488819	0.0	0.9099910627649741	-0.2105695849123449	0.0	1.024359870172604	-0.3323758767607885	0.0	1.1794561585636898	-0.35029011711657504	0.0	0.9457080155502008	-0.21118012562815883	0.0	0.9693082850507542	-0.3561977857451627	0.0	1.0061902482727274	-0.48938010929690856	0.0
105	3.508373205741627	0.8660906930430219	-0.4782628741406081	0.0	0.8557658177846144	-0.47224188133982165	0.0	0.848305992886864	-0.7172351148523	0.0	0.8072519306004547	-0.9436032979291288	0.0	0.8993144127643641	-0.9794006508706753	0.0	0.8750081409880194	-0.9894145883857008	0.0	0.7823790728491462	-0.9751345650489944	0.0	0.8953754163597353	-0.4764480429293573	0.0	0.9270761816394758	-0.7114862231609669	0.0	0.8310300127453927	-0.9103769565606127	0.0	0.9169076061224686	-0.9602602815560208	0.0	0.9076104371555495	-0.9486599257103158	0.0	0.7968448939078402	-0.9345688276034358	0.0	0.9454863959502796	-0.16804183602032008	0.0	0.9798596196892304	-0.026539799819443204	0.0	0.994766685140959	-0.11087079010988665	0.0	0.9100838144124187	-0.21101796812507334	0.0	1.0320802394027762	-0.3254458652681655	0.0	1.1894921159361656	-0.33218577370451424	0.0	0.9464636951705862	-0.21165679314530864	0.0	0.9705635740084999	-0.3560885004118259	0.0	1.0061540627776073	-0.49083137292640444	0.0
106	3.5417862838915473	0.8677956576941577	-0.47746311761476923	0.0	0.8562725476031475	-0.4712421635759956	0.0	0.8483162000958934	-0.716490235886264	0.0	0.8071343868591764	-0.9434661340454913	0.0	0.8991189892546884	-0.9799714259885346	0.0	0.8742551566815926	-0.9899566349941933	0.0	0.7815044795986898	-0.9747711037161508	0.0	0.8964089544318339	-0.4758607926116774	0.0	0.9258184009307349	-0.7113852949077236	0.0	0.8318134400943135	-0.9108813514329088	0.0	0.9163841949351245	-0.9594535826071028	0.0	0.9084852989411721	-0.948105219989809	0.0	0.7964840987882239	-0.9349094090679222	0.0	0.9465491620079977	-0.16880707838892936	0.0	0.9796919372344062	-0.026430228171028476	0.0	0.996094087167395	-0.11066836383261902	0.0	0.9102130170000554	-0.21118840858917157	0.0	1.0397775435470542	-0.3176140213907094	0.0	1.1982181877331741	-0.3141197539793939	0.0	0.9481086334770725	-0.21200035315332003	0.0	0.9724756311493483	-0.3561258031660358	0.0	1.0056923250892837	-0.49238420916955983	0.0
107	3.5751993620414675	0.8694512753580457	-0.4768296409321747	0.0	0.8564645536490765	-0.4705564258284714	0.0	0.8480694234145709	-0.7157557877409342	0.0	0.8069233630188185	-0.943067925936317	0.0	0.8982572848489055	-0.9804803807070566	0.0	0.8728507183892311	-0.9905322011847661	0.0	0.7803918401593156	-0.9742357647011844	0.0	0.8974243490346581	-0.4753382339152227	0.0	0.9244689111040669	-0.7107188674994235	0.0	0.8327906590349378	-0.9109245920329324	0.0	0.9153944790393059	-0.9584740329200359	0.0	0.9088540801104446	-0.9474076363305891	0.0	0.7966550171687136	-0.9347567427417877	0.0	0.9476018150015401	-0.16950091646292179	0.0	0.9796490317248921	-0.026546610205930805	0.0	0.9975707757518527	-0.1104847562370345	0.0	0.9106694887706387	-0.21111397543836438	0.0	1.0474355086060563	-0.3087144651902689	0.0	1.2055459230905559	-0.2960646898588169	0.0	0.9502978128411005	-0.21203810443191393	0.0	0.974625215173183	-0.35624781587291204	0.0	1.005023830184752	-0.494127422531592	0.0
108	3.6086124401913877	0.8706750712206931	-0.47643035134506345	0.0	0.856260220107967	-0.47017014969896975	0.0	0.8477104944741043	-0.715019717455072	0.0	0.8066571176377393	-0.9424380980328803	0.0	0.8968718817550517	-0.9808918094353135	0.0	0.8711948684488081	-0.9910802137273143	0.0	0.7793139669968799	-0.9736025211082968	0.0	0.8980683249349327	-0.47479926974789594	0.0	0.9232839233312458	-0.7094885468039558	0.0	0.8338404347178382	-0.9103911078125626	0.0	0.9141908564285278	-0.9573347542640318	0.0	0.9086745909226482	-0.9465258664276067	0.0	0.7973594239652337	-0.934048931868943	0.0	0.948585185954988	-0.16994800088853598	0.0	0.9797397958806309	-0.02680297911268097	0.0	0.9990593937262934	-0.11043352922456931	0.0	0.9116325008377731	-0.2109431506809579	0.0	1.055369796044819	-0.29890259988849543	0.0	1.2117144097584907	-0.277904508469638	0.0	0.9524643689655525	-0.21172016053260018	0.0	0.9757887701810972	-0.3563546049372309	0.0	1.004306703582514	-0.49562168942363394	0.0
109	3.642025518341308	0.8712921640186071	-0.4762246671350972	0.0	0.8558070134383781	-0.46998626024857554	0.0	0.8473549652378093	-0.714280693193131	0.0	0.8063632343339754	-0.9417214611939508	0.0	0.8950918071091707	-0.9812693217871653	0.0	0.8695994348864957	-0.9916027427522138	0.0	0.7785566844739882	-0.9729550525079881	0.0	0.8981364942375623	-0.4741943093200416	0.0	0.9223831663709701	-0.7079183179096961	0.0	0.8347020073978249	-0.9094901034307317	0.0	0.9129546203281794	-0.9562004430770745	0.0	0.9079999597229059	-0.9456359501403792	0.0	0.798401433157381	-0.9330267832117917	0.0	0.9494855513905781	-0.17004969484667462	0.0	0.9799549840150269	-0.027066858623508484	0.0	1.0004788767606039	-0.11056437278391554	0.0	0.9131081834845598	-0.21081107087293266	0.0	1.0638199613190373	-0.2885505778478504	0.0	1.2170436076886773	-0.2596051141628297	0.0	0.9539846252489608	-0.2111335940932494	0.0	0.9744599223378102	-0.35658208489801585	0.0	1.0035792483536268	-0.4962447469984127	0.0
110	3.675438596491228	0.8713546756939337	-0.4761561942911563	0.0	0.8553475468726132	-0.4698916737720765	0.0	0.8470728163010224	-0.7135982669430824	0.0	0.8060647305506998	-0.941069765982027	0.0	0.893135536224979	-0.9816343412934799	0.0	0.8682495637919153	-0.9920915801429598	0.0	0.7782560966989819	-0.9723408975019342	0.0	0.8976673369231135	-0.47356526053921333	0.0	0.9217591955100991	-0.7064270599981816	0.0	0.8350345826219535	-0.908538647736147	0.0	0.9117742947636946	-0.9552501267439872	0.0	0.906903952190552	-0.9449771148494089	0.0	0.7994166786505077	-0.9320437363259275	0.0	0.9502624382056104	-0.16980509048687242	0.0	0.980292505113919	-0.027223653135880075	0.0	1.001762829346452	-0.11084558932292894	0.0	0.9149772587557509	-0.21071456236559996	0.0	1.0724665438598282	-0.27802565597179796	0.0	1.221719255895172	-0.24136900239576897	0.0	0.9544156788312327	-0.21040762595993093	0.0	0.9700955498086474	-0.3572665582384104	0.0	1.002864096122757	-0.4956976225914921	0.0
